<svg width="64" height="65" viewBox="0 0 64 65" fill="none" xmlns="http://www.w3.org/2000/svg">
<path d="M17.4084 17.4399V46.6235H46.592V17.4399H17.4084ZM30.6138 31.1482L21.7114 20.2127H30.6138V31.1482ZM33.3866 20.2127H42.2891L33.3866 31.1482V20.2127ZM20.1812 22.7253L30.6138 35.5403V43.8511H20.1812V22.7257V22.7253ZM33.3866 43.8507V35.5398L43.8192 22.7248V43.8502H33.3866V43.8507Z" fill="#1C1F1F"/>
<path d="M32.0004 0.0317383L17.4084 14.6563H46.592L32.0004 0.0317383Z" fill="#EFA630"/>
<path d="M32.0004 64.0318L17.4084 49.4072H46.592L32.0004 64.0318Z" fill="#0C6643"/>
<path d="M0 32.0319L14.6246 46.6235V17.4399L0 32.0319Z" fill="#B92136"/>
<path d="M64.0003 32.0319L49.3757 46.6235V17.4399L64.0003 32.0319Z" fill="#0B1E4C"/>
</svg>
