<svg width="90" height="25" viewBox="0 0 90 25" fill="none" xmlns="http://www.w3.org/2000/svg">
<path d="M30.3766 24.0778H29.7004V16.9974H30.3766V24.0778ZM34.3698 17.6099H29.9323V16.9974H34.3698V17.6099ZM33.6832 21.0544H29.9323V20.4419H33.6832V21.0544Z" fill="#FCF7ED"/>
<path d="M38.1937 24.1834C37.6938 24.1834 37.238 24.0894 36.8251 23.9038C36.4134 23.717 36.0596 23.4583 35.7639 23.1276C35.4681 22.797 35.2396 22.4095 35.0773 21.9652C34.9149 21.5208 34.8349 21.0429 34.8349 20.5277C34.8349 20.0126 34.9161 19.5463 35.0773 19.1066C35.2396 18.6669 35.4681 18.2805 35.7639 17.9499C36.0596 17.6193 36.4134 17.3605 36.8251 17.1738C37.2368 16.987 37.6926 16.8942 38.1937 16.8942C38.6947 16.8942 39.1586 16.9881 39.5669 17.1738C39.9751 17.3605 40.3277 17.6193 40.6235 17.9499C40.9192 18.2817 41.1477 18.6669 41.3101 19.1066C41.4725 19.5474 41.5525 20.0208 41.5525 20.5277C41.5525 21.0347 41.4713 21.5208 41.3101 21.9652C41.1477 22.4095 40.9192 22.797 40.6235 23.1276C40.3277 23.4594 39.9751 23.7182 39.5669 23.9038C39.1586 24.0906 38.7005 24.1834 38.1937 24.1834ZM38.2041 23.5279C38.7608 23.5279 39.234 23.3991 39.6249 23.1416C40.0157 22.884 40.315 22.529 40.5226 22.0742C40.7302 21.6194 40.8346 21.1043 40.8346 20.5266C40.8346 19.9488 40.7302 19.4477 40.5226 18.9998C40.315 18.552 40.0157 18.1982 39.6249 17.9383C39.234 17.6773 38.7608 17.5473 38.2041 17.5473C37.6474 17.5473 37.1615 17.6773 36.7671 17.9383C36.3728 18.1993 36.0736 18.5532 35.8694 18.9998C35.6653 19.4477 35.5632 19.9558 35.5632 20.5266C35.5632 21.0974 35.6653 21.6206 35.8694 22.0742C36.0736 22.529 36.3728 22.884 36.7671 23.1416C37.1615 23.3991 37.6405 23.5279 38.2041 23.5279Z" fill="#FCF7ED"/>
<path d="M45.41 24.1834C44.5158 24.1834 43.8512 23.9374 43.4186 23.4432C42.9848 22.9501 42.7691 22.1821 42.7691 21.1391V16.9962H43.4557V21.1391C43.4557 21.971 43.6088 22.5766 43.915 22.9571C44.2212 23.3376 44.7199 23.5279 45.41 23.5279C46.1001 23.5279 46.6266 23.3399 46.9259 22.9629C47.2251 22.5858 47.3747 21.9779 47.3747 21.1403V16.9974H48.0717V21.1403C48.0717 22.1833 47.8583 22.9513 47.4327 23.4443C47.0059 23.9374 46.332 24.1845 45.41 24.1845V24.1834Z" fill="#FCF7ED"/>
<path d="M50.5224 24.0778H49.8463V16.9974H50.4586L53.9033 22.0382L54.5261 22.9687L54.4948 22.0498V16.9985H55.1709V24.0789H54.5586L51.0084 18.9221L50.4911 18.1401L50.5224 18.9325V24.0789V24.0778Z" fill="#FCF7ED"/>
<path d="M57.7376 24.0778H57.0615V16.9974H57.7376V24.0778ZM59.3857 24.0778H57.2934V23.4652H59.2906C59.8752 23.4652 60.3692 23.3631 60.7752 23.1589C61.1799 22.9547 61.4861 22.638 61.6949 22.2076C61.9025 21.7783 62.0069 21.2215 62.0069 20.5381C62.0069 19.8548 61.9013 19.2898 61.6903 18.8629C61.4792 18.4371 61.173 18.1216 60.7705 17.9174C60.3692 17.7132 59.8763 17.6111 59.2918 17.6111H57.2946V16.9985H59.3869C60.1268 16.9985 60.7427 17.1378 61.2356 17.4162C61.7285 17.6946 62.0985 18.0984 62.3444 18.6262C62.5914 19.1541 62.7144 19.7922 62.7144 20.5393C62.7144 21.2864 62.5926 21.9234 62.3502 22.4524C62.1078 22.9803 61.739 23.384 61.246 23.6624C60.7531 23.9409 60.1326 24.0801 59.3869 24.0801L59.3857 24.0778Z" fill="#FCF7ED"/>
<path d="M63.8127 24.0778H63.0843L65.9259 16.9974H66.6333L69.4749 24.0778H68.7036L66.6333 18.8049L66.2738 17.7062L65.8934 18.8049L63.8127 24.0778ZM68.133 21.9013H64.3717V21.2888H68.133V21.9013Z" fill="#FCF7ED"/>
<path d="M74.0596 17.6099H68.7454V16.9974H74.0596V17.6099ZM71.7458 24.0778H71.0592V16.9974H71.7458V24.0778Z" fill="#FCF7ED"/>
<path d="M75.2959 24.0778H74.6198V16.9974H75.2959V24.0778Z" fill="#FCF7ED"/>
<path d="M79.9862 24.1834C79.4863 24.1834 79.0305 24.0894 78.6176 23.9038C78.2059 23.717 77.8522 23.4583 77.5564 23.1276C77.2607 22.797 77.0322 22.4095 76.8698 21.9652C76.7074 21.5208 76.6274 21.0429 76.6274 20.5277C76.6274 20.0126 76.7086 19.5463 76.8698 19.1066C77.0322 18.6669 77.2607 18.2805 77.5564 17.9499C77.8522 17.6193 78.2059 17.3605 78.6176 17.1738C79.0294 16.987 79.4852 16.8942 79.9862 16.8942C80.4872 16.8942 80.9512 16.9881 81.3594 17.1738C81.7677 17.3605 82.1203 17.6193 82.416 17.9499C82.7118 18.2817 82.9402 18.6669 83.1026 19.1066C83.265 19.5474 83.345 20.0208 83.345 20.5277C83.345 21.0347 83.2638 21.5208 83.1026 21.9652C82.9402 22.4095 82.7118 22.797 82.416 23.1276C82.1203 23.4594 81.7677 23.7182 81.3594 23.9038C80.9512 24.0906 80.493 24.1834 79.9862 24.1834ZM79.9966 23.5279C80.5534 23.5279 81.0266 23.3991 81.4174 23.1416C81.8083 22.884 82.1075 22.529 82.3151 22.0742C82.5227 21.6194 82.6271 21.1043 82.6271 20.5266C82.6271 19.9488 82.5227 19.4477 82.3151 18.9998C82.1075 18.552 81.8083 18.1982 81.4174 17.9383C81.0266 17.6773 80.5534 17.5473 79.9966 17.5473C79.4399 17.5473 78.954 17.6773 78.5596 17.9383C78.1653 18.1993 77.8661 18.5532 77.662 18.9998C77.4578 19.4477 77.3558 19.9558 77.3558 20.5266C77.3558 21.0974 77.4578 21.6206 77.662 22.0742C77.8661 22.529 78.1653 22.884 78.5596 23.1416C78.954 23.3991 79.433 23.5279 79.9966 23.5279Z" fill="#FCF7ED"/>
<path d="M85.3526 24.0778H84.6765V16.9974H85.2889L88.7323 22.0382L89.3551 22.9687L89.3238 22.0498V16.9985H90V24.0789H89.3876L85.8386 18.9221L85.3213 18.1401L85.3526 18.9325V24.0789V24.0778Z" fill="#FCF7ED"/>
<path d="M32.1012 14.155H29.7143V6.10352e-05H32.1012V14.155Z" fill="#FCF7ED"/>
<path d="M40.2593 14.155H37.746L43.2794 6.10352e-05H46.0247L51.5581 14.155H48.9184L45.3705 4.68938L44.6097 2.13357L43.8489 4.68938L40.2581 14.155H40.2593ZM48.4336 10.5841H40.5759V8.51322H48.4336V10.5841Z" fill="#FCF7ED"/>
<path d="M54.8961 14.155H52.5092V6.10352e-05H55.4446L58.4857 6.21149L59.8798 9.82419L61.2738 6.21149L64.316 6.10352e-05H67.2515V14.155H64.8646V7.50041L65.1604 2.83082L63.5343 6.90874L61.0848 11.7686H58.677L56.2275 6.90874L54.5586 2.83082L54.8961 7.50041V14.155Z" fill="#FCF7ED"/>
<path d="M6.57611 6.57812V17.6053H17.6001V6.57812H6.57611ZM11.5645 11.7582L8.201 7.62574H11.5645V11.7582ZM12.6118 7.62574H15.9752L12.6118 11.7582V7.62574ZM7.62342 8.57474L11.5645 13.4172V16.5577H7.62342V8.57474ZM12.6118 16.5577V13.4172L16.5528 8.57474V16.5577H12.6118Z" fill="#FCF7ED"/>
<path d="M12.0875 6.10352e-05L6.57611 5.52584H17.6001L12.0875 6.10352e-05Z" fill="#FCF7ED"/>
<path d="M12.0875 24.1833L6.57611 18.6564H17.6001L12.0875 24.1833Z" fill="#FCF7ED"/>
<path d="M0 12.0911L5.52417 17.6053V6.57812L0 12.0911Z" fill="#FCF7ED"/>
<path d="M24.1762 12.0911L18.6509 17.6053V6.57812L24.1762 12.0911Z" fill="#FCF7ED"/>
</svg>
