<svg xmlns="http://www.w3.org/2000/svg" width="26" height="43" viewBox="0 0 26 43" fill="none">
    <path d="M7.2998 6.80273V18.2068H18.7005V6.80273H7.2998ZM12.4584 12.1596L8.98128 7.88648H12.4584V12.1596ZM13.5419 7.88648H17.0191L13.5419 12.1596V7.88648ZM8.38324 8.86869L12.4584 13.8765V17.1246H8.38324V8.87028V8.86869ZM13.5419 17.123V13.8749L17.6171 8.86711V17.1214H13.5419V17.123Z" fill="#1C1F1F"/>
    <path d="M12.9994 0L7.2998 5.71392H18.6989L12.9994 0Z" fill="#EFA630"/>
    <path d="M12.9994 25.0069L7.2998 19.293H18.6989L12.9994 25.0069Z" fill="#0C6643"/>
    <path d="M0.5 12.504L6.21226 18.2052V6.80273L0.5 12.504Z" fill="#B92136"/>
    <path d="M25.5003 12.504L19.7881 18.2052V6.80273L25.5003 12.504Z" fill="#0B1E4C"/>
    <path d="M0.780773 42.2656H0.5V39.3301H0.780773V42.2656ZM2.43687 39.584H0.596762V39.3301H2.43687V39.584ZM2.15292 41.012H0.59835V40.7582H2.15292V41.012Z" fill="#1C1F1F"/>
    <path d="M4.0207 42.3099C3.81289 42.3099 3.62413 42.2718 3.45281 42.1941C3.28149 42.1163 3.13555 42.01 3.01182 41.8719C2.88967 41.7355 2.79449 41.5736 2.72787 41.3896C2.66124 41.2055 2.62793 41.0072 2.62793 40.7929C2.62793 40.5787 2.66124 40.3867 2.72787 40.2043C2.79449 40.0218 2.88967 39.8615 3.01182 39.7251C3.13396 39.5886 3.28149 39.4807 3.45281 39.4029C3.62413 39.3252 3.81289 39.2871 4.0207 39.2871C4.2285 39.2871 4.42045 39.3252 4.59018 39.4029C4.75991 39.4807 4.90585 39.587 5.028 39.7251C5.15014 39.8631 5.24532 40.0218 5.31195 40.2043C5.37857 40.3867 5.41189 40.5835 5.41189 40.7929C5.41189 41.0024 5.37857 41.2055 5.31195 41.3896C5.24532 41.5736 5.15014 41.7339 5.028 41.8719C4.90585 42.01 4.75991 42.1163 4.59018 42.1941C4.42045 42.2718 4.23168 42.3099 4.0207 42.3099ZM4.02546 42.0386C4.25547 42.0386 4.45218 41.9846 4.61398 41.8783C4.77578 41.772 4.89951 41.6244 4.98675 41.4356C5.07241 41.2468 5.11524 41.0325 5.11524 40.7929C5.11524 40.5533 5.07241 40.3455 4.98675 40.1598C4.90109 39.9742 4.77578 39.8282 4.61398 39.7187C4.45218 39.6108 4.25547 39.5569 4.02546 39.5569C3.79544 39.5569 3.59399 39.6108 3.42901 39.7187C3.26562 39.8266 3.14189 39.9742 3.05623 40.1598C2.97216 40.3455 2.92933 40.5565 2.92933 40.7929C2.92933 41.0294 2.97216 41.2468 3.05623 41.4356C3.14031 41.6244 3.26562 41.772 3.42901 41.8783C3.5924 41.9846 3.79069 42.0386 4.02546 42.0386Z" fill="#1C1F1F"/>
    <path d="M7.01349 42.3104C6.6423 42.3104 6.36787 42.2088 6.18862 42.0041C6.00937 41.7994 5.91895 41.4821 5.91895 41.0489V39.332H6.20289V41.0489C6.20289 41.3932 6.26635 41.6455 6.39325 41.8026C6.52016 41.9597 6.72637 42.039 7.01349 42.039C7.30061 42.039 7.51794 41.9613 7.64167 41.8042C7.7654 41.6487 7.82727 41.3964 7.82727 41.0489V39.332H8.11597V41.0489C8.11597 41.4805 8.02714 41.7994 7.85106 42.0041C7.67498 42.2088 7.3942 42.3104 7.01191 42.3104H7.01349Z" fill="#1C1F1F"/>
    <path d="M9.13234 42.2656H8.85156V39.3301H9.10537L10.533 41.4198L10.7916 41.8054L10.7789 41.4246V39.3301H11.0597V42.2656H10.8059L9.3338 40.1282L9.11965 39.8045L9.13234 40.133V42.2672V42.2656Z" fill="#1C1F1F"/>
    <path d="M12.1245 42.2656H11.8438V39.3301H12.1245V42.2656ZM12.8082 42.2656H11.9405V42.0117H12.7686C13.0113 42.0117 13.2159 41.9689 13.384 41.8848C13.5522 41.8007 13.6791 41.669 13.7648 41.4897C13.8504 41.3119 13.8932 41.0803 13.8932 40.7978C13.8932 40.5154 13.8488 40.2805 13.7616 40.1028C13.6743 39.9267 13.5474 39.795 13.3809 39.7109C13.2143 39.6268 13.0097 39.584 12.767 39.584H11.9389V39.3301H12.8066C13.1128 39.3301 13.3682 39.3872 13.5728 39.503C13.7774 39.6189 13.9297 39.7855 14.0328 40.0045C14.1344 40.2234 14.1867 40.4884 14.1867 40.7978C14.1867 41.1073 14.136 41.3722 14.036 41.5912C13.9361 41.8102 13.7822 41.9768 13.5776 42.0926C13.3729 42.2085 13.116 42.2656 12.8066 42.2656H12.8082Z" fill="#1C1F1F"/>
    <path d="M14.6419 42.2656H14.3389L15.5175 39.3301H15.8109L16.9896 42.2656H16.6691L15.8109 40.079L15.6618 39.6236L15.5048 40.079L14.6419 42.2656ZM16.4328 41.3627H14.8734V41.1088H16.4328V41.3627Z" fill="#1C1F1F"/>
    <path d="M18.8918 39.5859H16.6885V39.332H18.8918V39.5859ZM17.9321 42.2675H17.6482V39.332H17.9321V42.2675Z" fill="#1C1F1F"/>
    <path d="M19.4038 42.2656H19.123V39.3301H19.4038V42.2656Z" fill="#1C1F1F"/>
    <path d="M21.3479 42.3099C21.14 42.3099 20.9513 42.2718 20.78 42.1941C20.6086 42.1163 20.4627 42.01 20.339 41.8719C20.2168 41.7355 20.1216 41.5736 20.055 41.3896C19.9884 41.2055 19.9551 41.0072 19.9551 40.7929C19.9551 40.5787 19.9884 40.3867 20.055 40.2043C20.1216 40.0218 20.2168 39.8615 20.339 39.7251C20.4611 39.5886 20.6086 39.4807 20.78 39.4029C20.9513 39.3252 21.14 39.2871 21.3479 39.2871C21.5557 39.2871 21.7476 39.3252 21.9173 39.4029C22.0871 39.4807 22.233 39.587 22.3551 39.7251C22.4773 39.8631 22.5725 40.0218 22.6391 40.2043C22.7057 40.3867 22.739 40.5835 22.739 40.7929C22.739 41.0024 22.7057 41.2055 22.6391 41.3896C22.5725 41.5736 22.4773 41.7339 22.3551 41.8719C22.233 42.01 22.0871 42.1163 21.9173 42.1941C21.7476 42.2718 21.5588 42.3099 21.3479 42.3099ZM21.3526 42.0386C21.5826 42.0386 21.7793 41.9846 21.9411 41.8783C22.1029 41.772 22.2267 41.6244 22.3139 41.4356C22.3996 41.2468 22.4424 41.0325 22.4424 40.7929C22.4424 40.5533 22.3996 40.3455 22.3139 40.1598C22.2282 39.9742 22.1029 39.8282 21.9411 39.7187C21.7793 39.6108 21.5826 39.5569 21.3526 39.5569C21.1226 39.5569 20.9211 39.6108 20.7562 39.7187C20.5928 39.8266 20.469 39.9742 20.3834 40.1598C20.2993 40.3455 20.2565 40.5565 20.2565 40.7929C20.2565 41.0294 20.2993 41.2468 20.3834 41.4356C20.4675 41.6244 20.5928 41.772 20.7562 41.8783C20.9196 41.9846 21.1178 42.0386 21.3526 42.0386Z" fill="#1C1F1F"/>
    <path d="M23.5728 42.2656H23.292V39.3301H23.5458L24.9735 41.4198L25.232 41.8054L25.2193 41.4246V39.3301H25.5001V42.2656H25.2463L23.7742 40.1282L23.5601 39.8045L23.5728 40.133V42.2672V42.2656Z" fill="#1C1F1F"/>
    <path d="M2.09582 37.2031H0.5V27.7412H2.09582V37.2031Z" fill="#1C1F1F"/>
    <path d="M7.45723 37.2031H5.77734L9.47659 27.7412H11.3119L15.0112 37.2031H13.2456L10.8741 30.8767L10.3665 29.1677L9.85889 30.8767L7.45882 37.2031H7.45723ZM12.9204 34.8166H7.66821V33.4329H12.9204V34.8166Z" fill="#1C1F1F"/>
    <path d="M17.2413 37.2031H15.6455V27.7412H17.6078L19.6414 31.8938L20.5725 34.3088L21.5037 31.8938L23.5373 27.7412H25.4996V37.2031H23.9038V32.7538L24.1021 29.6326L23.0155 32.3587L21.3784 35.6068H19.7683L18.1312 32.3587L17.0161 29.6326L17.2413 32.7538V37.2031Z" fill="#1C1F1F"/>
</svg>